<?xml version="1.0" encoding="UTF-8" standalone="no"?>
<!-- Created with Inkscape (http://www.inkscape.org/) -->

<svg
   xmlns:dc="http://purl.org/dc/elements/1.1/"
   xmlns:cc="http://creativecommons.org/ns#"
   xmlns:rdf="http://www.w3.org/1999/02/22-rdf-syntax-ns#"
   xmlns:svg="http://www.w3.org/2000/svg"
   xmlns="http://www.w3.org/2000/svg"
   xmlns:sodipodi="http://sodipodi.sourceforge.net/DTD/sodipodi-0.dtd"
   xmlns:inkscape="http://www.inkscape.org/namespaces/inkscape"
   width="48"
   height="48"
   viewBox="0 0 12.7 12.7"
   version="1.1"
   id="svg8"
   inkscape:version="0.92.0 r15299"
   sodipodi:docname="icon.svg">
  <defs
     id="defs2" />
  <sodipodi:namedview
     id="base"
     pagecolor="#ffffff"
     bordercolor="#666666"
     borderopacity="1.0"
     inkscape:pageopacity="0.0"
     inkscape:pageshadow="2"
     inkscape:zoom="8"
     inkscape:cx="9.1297373"
     inkscape:cy="35.283677"
     inkscape:document-units="mm"
     inkscape:current-layer="layer2"
     showgrid="true"
     units="px"
     inkscape:pagecheckerboard="false"
     showguides="false"
     inkscape:measure-start="37,48"
     inkscape:measure-end="38,24"
     inkscape:snap-grids="false"
     inkscape:snap-to-guides="true"
     inkscape:snap-others="true"
     inkscape:object-nodes="false"
     inkscape:window-width="1920"
     inkscape:window-height="1017"
     inkscape:window-x="-8"
     inkscape:window-y="-8"
     inkscape:window-maximized="1">
    <inkscape:grid
       type="xygrid"
       id="grid3690" />
  </sodipodi:namedview>
  <metadata
     id="metadata5">
    <rdf:RDF>
      <cc:Work
         rdf:about="">
        <dc:format>image/svg+xml</dc:format>
        <dc:type
           rdf:resource="http://purl.org/dc/dcmitype/StillImage" />
        <dc:title></dc:title>
      </cc:Work>
    </rdf:RDF>
  </metadata>
  <g
     inkscape:label="Ebene 1"
     inkscape:groupmode="layer"
     id="layer1"
     transform="translate(0,-284.3)"
     style="display:inline">
    <path
       style="opacity:1;fill:#35626e;fill-opacity:1;stroke:#63cad6;stroke-width:0.66517693;stroke-linecap:round;stroke-linejoin:miter;stroke-miterlimit:4;stroke-dasharray:none;stroke-opacity:1"
       d="m 6.3499994,285.66112 a 4.9888265,4.9888265 0 0 0 -4.9888265,4.98883 4.9888265,4.9888265 0 0 0 4.9888265,4.98883 4.9888265,4.9888265 0 0 0 4.9888266,-4.98883 4.9888265,4.9888265 0 0 0 -4.9888266,-4.98883 z m 0,2.49442 a 2.4944132,2.4944132 0 0 1 2.4944132,2.49441 2.4944132,2.4944132 0 0 1 -2.4944132,2.49441 2.4944132,2.4944132 0 0 1 -2.4944132,-2.49441 2.4944132,2.4944132 0 0 1 2.4944132,-2.49441 z"
       id="path4511"
       inkscape:connector-curvature="0" />
    <g
       id="g5122"
       transform="matrix(1.2570272,0,0,1.2570272,-1.632123,-74.704992)">
      <path
         inkscape:transform-center-y="-4.233518"
         sodipodi:nodetypes="ccccc"
         inkscape:connector-curvature="0"
         id="rect4515"
         d="m 6.0854166,285.62292 h 0.5291666 l 0.2645834,1.5875 H 5.8208333 Z"
         style="opacity:1;fill:#35626e;fill-opacity:1;stroke:none;stroke-width:0;stroke-linecap:round;stroke-linejoin:miter;stroke-miterlimit:4;stroke-dasharray:none;stroke-opacity:1" />
      <path
         inkscape:transform-center-x="1.4978757"
         style="opacity:1;fill:#35626e;fill-opacity:1;stroke:none;stroke-width:0;stroke-linecap:round;stroke-linejoin:miter;stroke-miterlimit:4;stroke-dasharray:none;stroke-opacity:1"
         d="m 4.1817046,286.10685 0.4888862,-0.2025 0.8519532,1.3654 -0.9777725,0.40501 z"
         id="path5040"
         inkscape:connector-curvature="0"
         sodipodi:nodetypes="ccccc"
         inkscape:transform-center-y="-3.860633" />
      <path
         inkscape:transform-center-y="-2.900003"
         sodipodi:nodetypes="ccccc"
         inkscape:connector-curvature="0"
         id="path5042"
         d="m 2.6080961,287.28246 0.3741785,-0.37417 1.3096181,0.93543 -0.7483534,0.74836 z"
         style="opacity:1;fill:#35626e;fill-opacity:1;stroke:none;stroke-width:0;stroke-linecap:round;stroke-linejoin:miter;stroke-miterlimit:4;stroke-dasharray:none;stroke-opacity:1"
         inkscape:transform-center-x="2.9000056" />
      <path
         inkscape:transform-center-x="3.8606371"
         style="opacity:1;fill:#35626e;fill-opacity:1;stroke:none;stroke-width:0;stroke-linecap:round;stroke-linejoin:miter;stroke-miterlimit:4;stroke-dasharray:none;stroke-opacity:1"
         d="m 1.6041579,288.97078 0.2025072,-0.48888 1.5679029,0.36305 -0.4050034,0.97778 z"
         id="path5044"
         inkscape:connector-curvature="0"
         sodipodi:nodetypes="ccccc"
         inkscape:transform-center-y="-1.497873" />
      <path
         inkscape:transform-center-y="-8e-006"
         sodipodi:nodetypes="ccccc"
         inkscape:connector-curvature="0"
         id="path5046"
         d="m 1.322732,290.91477 6e-6,-0.52916 1.5874866,-0.2646 5.9e-6,1.05834 z"
         style="opacity:1;fill:#35626e;fill-opacity:1;stroke:none;stroke-width:0;stroke-linecap:round;stroke-linejoin:miter;stroke-miterlimit:4;stroke-dasharray:none;stroke-opacity:1"
         inkscape:transform-center-x="4.2335188" />
      <path
         inkscape:transform-center-x="3.8606326"
         style="opacity:1;fill:#35626e;fill-opacity:1;stroke:none;stroke-width:0;stroke-linecap:round;stroke-linejoin:miter;stroke-miterlimit:4;stroke-dasharray:none;stroke-opacity:1"
         d="m 1.8066611,292.81848 -0.2024952,-0.48888 1.3653884,-0.85196 0.4050146,0.97777 z"
         id="path5048"
         inkscape:connector-curvature="0"
         sodipodi:nodetypes="ccccc"
         inkscape:transform-center-y="1.497872" />
      <path
         inkscape:transform-center-y="2.900002"
         sodipodi:nodetypes="ccccc"
         inkscape:connector-curvature="0"
         id="path5050"
         d="m 2.9822716,294.39209 -0.3741674,-0.37418 0.9354234,-1.30962 0.7483611,0.74835 z"
         style="opacity:1;fill:#35626e;fill-opacity:1;stroke:none;stroke-width:0;stroke-linecap:round;stroke-linejoin:miter;stroke-miterlimit:4;stroke-dasharray:none;stroke-opacity:1"
         inkscape:transform-center-x="2.9000036" />
      <path
         inkscape:transform-center-x="1.4978769"
         style="opacity:1;fill:#35626e;fill-opacity:1;stroke:none;stroke-width:0;stroke-linecap:round;stroke-linejoin:miter;stroke-miterlimit:4;stroke-dasharray:none;stroke-opacity:1"
         d="m 4.6705886,295.39603 -0.4888781,-0.20251 0.3630486,-1.5679 0.9777767,0.405 z"
         id="path5052"
         inkscape:connector-curvature="0"
         sodipodi:nodetypes="ccccc"
         inkscape:transform-center-y="3.860637" />
      <path
         inkscape:transform-center-y="4.233522"
         sodipodi:nodetypes="ccccc"
         inkscape:connector-curvature="0"
         id="path5054"
         d="m 6.6145813,295.67746 -0.5291617,-10e-6 -0.2645962,-1.58749 h 1.0583347 z"
         style="opacity:1;fill:#35626e;fill-opacity:1;stroke:none;stroke-width:0;stroke-linecap:round;stroke-linejoin:miter;stroke-miterlimit:4;stroke-dasharray:none;stroke-opacity:1"
         inkscape:transform-center-x="9.3e-006" />
      <path
         inkscape:transform-center-x="-1.4978716"
         style="opacity:1;fill:#35626e;fill-opacity:1;stroke:none;stroke-width:0;stroke-linecap:round;stroke-linejoin:miter;stroke-miterlimit:4;stroke-dasharray:none;stroke-opacity:1"
         d="m 8.518295,295.19353 -0.4888855,0.20249 -0.8519612,-1.36539 0.9777738,-0.40501 z"
         id="path5056"
         inkscape:connector-curvature="0"
         sodipodi:nodetypes="ccccc"
         inkscape:transform-center-y="3.860632" />
      <path
         inkscape:transform-center-y="2.900002"
         sodipodi:nodetypes="ccccc"
         inkscape:connector-curvature="0"
         id="path5058"
         d="m 10.091905,294.01792 -0.3741817,0.37416 -1.3096216,-0.93542 0.7483546,-0.74836 z"
         style="opacity:1;fill:#35626e;fill-opacity:1;stroke:none;stroke-width:0;stroke-linecap:round;stroke-linejoin:miter;stroke-miterlimit:4;stroke-dasharray:none;stroke-opacity:1"
         inkscape:transform-center-x="-2.9000033" />
      <path
         inkscape:transform-center-x="-3.8606366"
         style="opacity:1;fill:#35626e;fill-opacity:1;stroke:none;stroke-width:0;stroke-linecap:round;stroke-linejoin:miter;stroke-miterlimit:4;stroke-dasharray:none;stroke-opacity:1"
         d="m 11.095845,292.3296 -0.202514,0.48887 -1.5679026,-0.36304 0.4050045,-0.97778 z"
         id="path5060"
         inkscape:connector-curvature="0"
         sodipodi:nodetypes="ccccc"
         inkscape:transform-center-y="1.497872" />
      <path
         inkscape:transform-center-y="1.2e-005"
         sodipodi:nodetypes="ccccc"
         inkscape:connector-curvature="0"
         id="path5062"
         d="m 11.377272,290.38561 -1.6e-5,0.52915 -1.5874824,0.26461 -4.8e-6,-1.05834 z"
         style="opacity:1;fill:#35626e;fill-opacity:1;stroke:none;stroke-width:0;stroke-linecap:round;stroke-linejoin:miter;stroke-miterlimit:4;stroke-dasharray:none;stroke-opacity:1"
         inkscape:transform-center-x="-4.2335203" />
      <path
         inkscape:transform-center-x="-3.8606289"
         style="opacity:1;fill:#35626e;fill-opacity:1;stroke:none;stroke-width:0;stroke-linecap:round;stroke-linejoin:miter;stroke-miterlimit:4;stroke-dasharray:none;stroke-opacity:1"
         d="m 10.893344,288.4819 0.202482,0.48887 -1.3653804,0.85197 -0.4050136,-0.97777 z"
         id="path5064"
         inkscape:connector-curvature="0"
         sodipodi:nodetypes="ccccc"
         inkscape:transform-center-y="-1.497868" />
      <path
         inkscape:transform-center-y="-2.899998"
         sodipodi:nodetypes="ccccc"
         inkscape:connector-curvature="0"
         id="path5066"
         d="m 9.7177346,286.90829 0.3741514,0.37417 -0.9354121,1.30963 -0.7483602,-0.74835 z"
         style="opacity:1;fill:#35626e;fill-opacity:1;stroke:none;stroke-width:0;stroke-linecap:round;stroke-linejoin:miter;stroke-miterlimit:4;stroke-dasharray:none;stroke-opacity:1"
         inkscape:transform-center-x="-2.8999998" />
      <path
         inkscape:transform-center-x="-1.4978731"
         style="opacity:1;fill:#35626e;fill-opacity:1;stroke:none;stroke-width:0;stroke-linecap:round;stroke-linejoin:miter;stroke-miterlimit:4;stroke-dasharray:none;stroke-opacity:1"
         d="m 8.0294187,285.90435 0.4888595,0.20251 -0.3630344,1.5679 -0.9777758,-0.405 z"
         id="path5068"
         inkscape:connector-curvature="0"
         sodipodi:nodetypes="ccccc"
         inkscape:transform-center-y="-3.860633" />
    </g>
  </g>
  <g
     inkscape:groupmode="layer"
     id="layer2"
     inkscape:label="Text">
    <g
       aria-label="Service"
       style="font-style:normal;font-variant:normal;font-weight:normal;font-stretch:normal;font-size:2.66649199px;line-height:8.33278751px;font-family:'Rockwell Extra Bold';-inkscape-font-specification:'Rockwell Extra Bold, ';letter-spacing:0px;word-spacing:0px;fill:#be0c0c;fill-opacity:1;stroke:#e76852;stroke-width:0.05291667;stroke-linecap:butt;stroke-linejoin:miter;stroke-miterlimit:4;stroke-dasharray:none;stroke-opacity:1"
       id="text5138"
       transform="translate(0.1190453,0.09211167)">
      <path
         d="M 0.92479261,7.1636305 H 0.51726722 V 6.5829394 H 0.92479261 Q 0.9977045,6.819903 1.1995142,6.819903 q 0.1458238,0 0.1458238,-0.1171798 0,-0.061194 -0.050778,-0.1015559 Q 1.2398761,6.5568994 1.0641064,6.4787795 0.84276673,6.3785257 0.73860689,6.3056138 0.64095704,6.2392119 0.57195114,6.1220321 0.50294524,6.0061542 0.50294524,5.8655384 q 0,-0.2525876 0.16405176,-0.3945054 0.16274975,-0.1419178 0.4010154,-0.1419178 0.2382656,0 0.4036194,0.1354078 V 5.3525512 H 1.8817612 V 5.8681424 H 1.4768398 Q 1.4026259,5.6546148 1.2138362,5.6546148 q -0.1328038,0 -0.1328038,0.1132738 0,0.054684 0.037758,0.082026 0.036456,0.028644 0.2356617,0.1262938 0.2669096,0.1328038 0.3567474,0.1939977 0.04557,0.029946 0.092442,0.08463 0.048174,0.053382 0.079422,0.1106698 0.07161,0.1275958 0.07161,0.2760236 0,0.2278496 -0.1692598,0.3853914 -0.1692597,0.1601458 -0.4270553,0.1601458 -0.2395677,0 -0.43356539,-0.1419178 z"
         style="font-style:normal;font-variant:normal;font-weight:normal;font-stretch:normal;font-size:2.66649199px;font-family:'Rockwell Extra Bold';-inkscape-font-specification:'Rockwell Extra Bold, ';fill:#be0c0c;fill-opacity:1;stroke:#e76852;stroke-width:0.05291667;stroke-miterlimit:4;stroke-dasharray:none;stroke-opacity:1"
         id="path5140"
         inkscape:connector-curvature="0" />
      <path
         d="m 2.8205018,6.4332096 h 0.3684655 q 0.0026,-0.03906 0.0026,-0.044268 0,-0.1028579 -0.05208,-0.1705618 -0.05208,-0.066402 -0.1380118,-0.066402 -0.088536,0 -0.1354078,0.072912 -0.046872,0.074214 -0.046872,0.1822797 0,0.014322 0.0013,0.02604 z m 0.4166394,0.3307075 0.5403292,0.066402 q -0.036456,0.08463 -0.1015559,0.1523338 -0.0651,0.066402 -0.1588437,0.1158778 -0.1887898,0.1015558 -0.4517934,0.1015558 -0.4413773,0 -0.664019,-0.1835817 Q 2.1786168,6.834225 2.1786168,6.5386714 q 0,-0.2890435 0.2200376,-0.4817392 0.2174337,-0.1926958 0.5898052,-0.1926958 0.3580494,0 0.5832951,0.1822798 0.2213396,0.1809777 0.2356616,0.5507451 H 2.8126898 q 0.00391,0.3072716 0.2291517,0.3072716 0.1354078,0 0.1952997,-0.1406158 z"
         style="font-style:normal;font-variant:normal;font-weight:normal;font-stretch:normal;font-size:2.66649199px;font-family:'Rockwell Extra Bold';-inkscape-font-specification:'Rockwell Extra Bold, ';fill:#be0c0c;fill-opacity:1;stroke:#e76852;stroke-width:0.05291667;stroke-miterlimit:4;stroke-dasharray:none;stroke-opacity:1"
         id="path5142"
         inkscape:connector-curvature="0" />
      <path
         d="M 5.0312945,7.1636305 H 4.013132 V 6.7665211 H 4.1849958 V 6.2978018 H 4.013132 V 5.9006924 h 0.7838028 v 0.3163855 q 0.044268,-0.1184818 0.1367098,-0.2044137 0.088536,-0.08463 0.1796758,-0.1106698 0.087234,-0.024738 0.2564936,-0.024738 v 0.5559532 q -0.022134,-0.0013 -0.054684,-0.0013 -0.2005076,0 -0.2981575,0.040362 -0.1015558,0.041664 -0.1380118,0.1093679 -0.037758,0.070308 -0.03906,0.1848837 h 0.1913937 z"
         style="font-style:normal;font-variant:normal;font-weight:normal;font-stretch:normal;font-size:2.66649199px;font-family:'Rockwell Extra Bold';-inkscape-font-specification:'Rockwell Extra Bold, ';fill:#be0c0c;fill-opacity:1;stroke:#e76852;stroke-width:0.05291667;stroke-miterlimit:4;stroke-dasharray:none;stroke-opacity:1"
         id="path5144"
         inkscape:connector-curvature="0" />
      <path
         d="M 6.6587918,7.1792545 H 6.1340866 L 5.6614613,6.2978018 H 5.5351675 V 5.9006924 H 6.4257342 V 6.2978018 H 6.2851184 L 6.4947401,6.7782391 6.7160798,6.2978018 H 6.589786 V 5.9006924 H 7.243389 V 6.2978018 H 7.1210012 Z"
         style="font-style:normal;font-variant:normal;font-weight:normal;font-stretch:normal;font-size:2.66649199px;font-family:'Rockwell Extra Bold';-inkscape-font-specification:'Rockwell Extra Bold, ';fill:#be0c0c;fill-opacity:1;stroke:#e76852;stroke-width:0.05291667;stroke-miterlimit:4;stroke-dasharray:none;stroke-opacity:1"
         id="path5146"
         inkscape:connector-curvature="0" />
      <path
         d="M 8.2849879,7.1636305 H 7.3905152 V 6.7665211 H 7.520715 V 6.2978018 H 7.3905152 V 5.9006924 H 8.17562 V 6.7665211 H 8.2849879 Z M 7.4660311,5.5439449 q 0,-0.1028578 0.1054618,-0.1653537 0.1041599,-0.062496 0.2577956,-0.062496 0.1575418,0 0.2538897,0.0651 0.095046,0.066402 0.095046,0.1614477 0,0.1028579 -0.098952,0.1627498 -0.1002539,0.061194 -0.2525877,0.061194 -0.1549377,0 -0.2577956,-0.055986 Q 7.4660311,5.6559168 7.4660311,5.5439449 Z"
         style="font-style:normal;font-variant:normal;font-weight:normal;font-stretch:normal;font-size:2.66649199px;font-family:'Rockwell Extra Bold';-inkscape-font-specification:'Rockwell Extra Bold, ';fill:#be0c0c;fill-opacity:1;stroke:#e76852;stroke-width:0.05291667;stroke-miterlimit:4;stroke-dasharray:none;stroke-opacity:1"
         id="path5148"
         inkscape:connector-curvature="0" />
      <path
         d="m 9.6351594,6.6454353 0.4882496,0.1093678 q -0.06119,0.2109237 -0.2630039,0.3281035 -0.2044137,0.1171798 -0.5051753,0.1171798 -0.3984114,0 -0.627563,-0.1796757 Q 8.4985151,6.840735 8.4985151,6.5386714 q 0,-0.2903455 0.2135277,-0.4765313 0.2122257,-0.1848837 0.5325172,-0.1848837 0.2708156,0 0.4179414,0.1080659 v -0.08463 H 10.062215 V 6.4397196 H 9.6625014 Q 9.5882875,6.2235879 9.4112158,6.2235879 q -0.1197839,0 -0.1848838,0.092442 -0.0651,0.095046 -0.0651,0.2304536 0,0.1471258 0.070308,0.2317557 0.069006,0.08463 0.1796758,0.08463 0.1822797,0 0.2239436,-0.2174339 z"
         style="font-style:normal;font-variant:normal;font-weight:normal;font-stretch:normal;font-size:2.66649199px;font-family:'Rockwell Extra Bold';-inkscape-font-specification:'Rockwell Extra Bold, ';fill:#be0c0c;fill-opacity:1;stroke:#e76852;stroke-width:0.05291667;stroke-miterlimit:4;stroke-dasharray:none;stroke-opacity:1"
         id="path5150"
         inkscape:connector-curvature="0" />
      <path
         d="m 10.97101,6.4332096 h 0.368465 q 0.0026,-0.03906 0.0026,-0.044268 0,-0.1028579 -0.05208,-0.1705618 -0.05208,-0.066402 -0.138012,-0.066402 -0.08854,0 -0.135408,0.072912 -0.04687,0.074214 -0.04687,0.1822797 0,0.014322 0.0013,0.02604 z m 0.416639,0.3307075 0.540329,0.066402 q -0.03646,0.08463 -0.101556,0.1523338 -0.0651,0.066402 -0.158844,0.1158778 -0.188789,0.1015558 -0.451793,0.1015558 -0.441377,0 -0.664019,-0.1835817 -0.222642,-0.1822797 -0.222642,-0.4778333 0,-0.2890435 0.220038,-0.4817392 0.217434,-0.1926958 0.589805,-0.1926958 0.35805,0 0.583295,0.1822798 0.22134,0.1809777 0.235662,0.5507451 h -0.994726 q 0.0039,0.3072716 0.229151,0.3072716 0.135408,0 0.1953,-0.1406159 z"
         style="font-style:normal;font-variant:normal;font-weight:normal;font-stretch:normal;font-size:2.66649199px;font-family:'Rockwell Extra Bold';-inkscape-font-specification:'Rockwell Extra Bold, ';fill:#be0c0c;fill-opacity:1;stroke:#e76852;stroke-width:0.05291667;stroke-miterlimit:4;stroke-dasharray:none;stroke-opacity:1"
         id="path5152"
         inkscape:connector-curvature="0" />
    </g>
  </g>
</svg>
